<?xml version="1.0" encoding="UTF-8" standalone="no"?>
<!-- Created with Inkscape (http://www.inkscape.org/) -->

<svg
   xmlns:dc="http://purl.org/dc/elements/1.1/"
   xmlns:cc="http://creativecommons.org/ns#"
   xmlns:rdf="http://www.w3.org/1999/02/22-rdf-syntax-ns#"
   xmlns:svg="http://www.w3.org/2000/svg"
   xmlns="http://www.w3.org/2000/svg"
   xmlns:sodipodi="http://sodipodi.sourceforge.net/DTD/sodipodi-0.dtd"
   xmlns:inkscape="http://www.inkscape.org/namespaces/inkscape"
   width="512"
   height="512"
   viewBox="0 0 135.46666 135.46667"
   version="1.1"
   id="svg8"
   inkscape:version="0.92.2 (5c3e80d, 2017-08-06)"
   sodipodi:docname="logo.svg"
   inkscape:export-filename="/home/adam/Documents/alexa-SteamStatus/logo108.svg.png"
   inkscape:export-xdpi="20.25"
   inkscape:export-ydpi="20.25">
  <defs
     id="defs2" />
  <sodipodi:namedview
     id="base"
     pagecolor="#ffffff"
     bordercolor="#666666"
     borderopacity="1.0"
     inkscape:pageopacity="0.0"
     inkscape:pageshadow="2"
     inkscape:zoom="0.9899495"
     inkscape:cx="323.35849"
     inkscape:cy="231.77126"
     inkscape:document-units="mm"
     inkscape:current-layer="layer1"
     showgrid="true"
     units="px"
     inkscape:window-width="3769"
     inkscape:window-height="2091"
     inkscape:window-x="71"
     inkscape:window-y="35"
     inkscape:window-maximized="1" />
  <metadata
     id="metadata5">
    <rdf:RDF>
      <cc:Work
         rdf:about="">
        <dc:format>image/svg+xml</dc:format>
        <dc:type
           rdf:resource="http://purl.org/dc/dcmitype/StillImage" />
        <dc:title />
      </cc:Work>
    </rdf:RDF>
  </metadata>
  <g
     inkscape:label="Layer 1"
     inkscape:groupmode="layer"
     id="layer1"
     transform="translate(0,-161.53332)">
    <rect
       style="fill:#00796b;fill-opacity:1;stroke:none;stroke-width:0.26395738"
       id="rect819"
       width="135.46666"
       height="135.46666"
       x="0"
       y="161.53333" />
    <g
       id="g14"
       transform="matrix(0.11005477,0,0,0.11005477,13.511319,170.42047)"
       style="fill:#e0f2f1;fill-opacity:1;stroke:none">
      <path
         id="path12"
         d="m 834.33911,467.2 c 0.2,-5.8 0.3,-11.1 0.3,-15.3 0,-69.8 -27.2,-135.4 -76.5,-184.8 -49.4,-49.4 -115,-76.5 -184.8,-76.5 -54.1,0 -107.3,18.4 -153.8,53.2 -31.8,23.8 -58.5,54.1 -77.7,87.7 -21.1,-11 -44.5,-16.7 -68.7,-16.7 -38.8,0 -76.1,18 -105,50.7 -19.3,21.8 -33,48.3 -39.7,75.9 -32.699999,12.9 -61.899999,35.1 -82.999999,63.5 -24.8,33.1 -37.8999996,72.5 -37.8999996,113.9 0,105.1 85.4999996,190.6 190.5999986,190.6 v -0.5 h 618.4 v 0.3 c 94.3,0 171,-76.7 171,-171 0,-88 -67.6,-161.5 -153.2,-171 z"
         inkscape:connector-curvature="0"
         style="fill:#e0f2f1;fill-opacity:1;stroke:none"
         sodipodi:nodetypes="cscsccscccsccccsc" />
    </g>
    <path
       id="path24"
       d="m 93.063389,230.15022 c 0,2.61602 -2.325376,4.73793 -4.941421,4.73793 -2.616044,0 -4.650742,-2.12191 -4.650742,-4.73793 0,-2.587 2.034698,-4.7089 4.650742,-4.7089 2.616045,0 4.941421,2.1219 4.941421,4.7089 z m -4.941421,-8.77831 c -4.650742,0 -8.720148,3.89501 -8.720148,8.74922 l -5.522758,7.8772 c -0.290667,-0.0291 -0.290667,-0.0581 -0.581347,-0.0581 -1.162683,0 -2.325364,0.34881 -3.488059,0.93017 l -24.82335,-9.99919 c -0.668546,-2.96486 -3.313656,-5.17396 -6.45291,-5.17396 -3.604328,0 -6.574993,2.96486 -6.574993,6.59824 0,3.60432 2.970665,6.56919 6.574993,6.56919 1.249887,0 2.383507,-0.31974 3.371791,-0.93016 l 24.997757,9.99911 c 0.581347,3.05206 3.197391,5.08676 6.394771,5.08676 3.197392,0 6.104105,-2.61605 6.394783,-5.8425 l 8.42947,-6.16225 c 4.941421,0 9.010828,-3.95314 9.010828,-8.8364 0,-4.85424 -4.069407,-8.80736 -9.010828,-8.80736 z m 0,2.90672 c 3.488059,0 6.104104,2.64511 6.104104,5.90065 0,3.28457 -2.616045,5.92968 -6.104104,5.92968 -3.197381,0 -5.813426,-2.64511 -5.813426,-5.92968 0,-3.25554 2.616045,-5.90065 5.813426,-5.90065 z m -49.588572,1.16269 c 1.860298,0 3.488059,1.01735 4.301939,2.55791 L 40.42276,227.04 v 0 c -1.947499,-0.69761 -4.098469,0.26162 -4.883282,2.18005 -0.755746,1.94749 0.116268,4.12753 2.005635,4.97047 v 0 l 2.034701,0.8139 c -0.31974,0.0873 -0.668545,0.11626 -1.046418,0.11626 -2.67418,0 -4.825148,-2.15097 -4.825148,-4.82514 0,-2.70325 2.150968,-4.85422 4.825148,-4.85422 z m 34.764319,14.24292 c 2.616045,0 4.650754,2.18003 4.650754,4.8542 0,2.70325 -2.034709,4.73795 -4.650754,4.73795 -2.034697,0 -3.488059,-0.87202 -4.360074,-2.47071 0.872015,0.43601 1.453362,0.72668 2.325377,1.01735 2.034697,0.87202 4.069406,-0.29067 4.941422,-2.15096 0.581336,-1.80217 0,-4.27288 -2.034709,-5.0577 l -2.034699,-0.81388 c 0.290669,-0.0581 0.872016,-0.11625 1.162683,-0.11625 z"
       inkscape:connector-curvature="0"
       style="fill:#00796b;stroke-width:0.29067162"
       sodipodi:nodetypes="ssssscccsccsssccsccsccsssssscccccccsssssscccccs" />
  </g>
</svg>
