<?xml version="1.0" encoding="UTF-8" standalone="no"?>
<!-- Created with Inkscape (http://www.inkscape.org/) -->

<svg
   xmlns:dc="http://purl.org/dc/elements/1.1/"
   xmlns:cc="http://creativecommons.org/ns#"
   xmlns:rdf="http://www.w3.org/1999/02/22-rdf-syntax-ns#"
   xmlns:svg="http://www.w3.org/2000/svg"
   xmlns="http://www.w3.org/2000/svg"
   xmlns:sodipodi="http://sodipodi.sourceforge.net/DTD/sodipodi-0.dtd"
   xmlns:inkscape="http://www.inkscape.org/namespaces/inkscape"
   width="512"
   height="512"
   viewBox="0 0 135.46666 135.46667"
   version="1.1"
   id="svg8"
   inkscape:version="0.92.2 (5c3e80d, 2017-08-06)"
   sodipodi:docname="logo.svg"
   inkscape:export-filename="/home/adam/Documents/alexa-Steam-status-master/branding/csgo/logo108.svg.png"
   inkscape:export-xdpi="20.25"
   inkscape:export-ydpi="20.25">
  <defs
     id="defs2" />
  <sodipodi:namedview
     id="base"
     pagecolor="#ffffff"
     bordercolor="#666666"
     borderopacity="1.0"
     inkscape:pageopacity="0.0"
     inkscape:pageshadow="2"
     inkscape:zoom="0.9899495"
     inkscape:cx="284.82447"
     inkscape:cy="196.51407"
     inkscape:document-units="mm"
     inkscape:current-layer="layer1"
     showgrid="true"
     units="px"
     inkscape:window-width="1885"
     inkscape:window-height="2091"
     inkscape:window-x="1955"
     inkscape:window-y="35"
     inkscape:window-maximized="0" />
  <metadata
     id="metadata5">
    <rdf:RDF>
      <cc:Work
         rdf:about="">
        <dc:format>image/svg+xml</dc:format>
        <dc:type
           rdf:resource="http://purl.org/dc/dcmitype/StillImage" />
        <dc:title />
      </cc:Work>
    </rdf:RDF>
  </metadata>
  <g
     inkscape:label="Layer 1"
     inkscape:groupmode="layer"
     id="layer1"
     transform="translate(0,-161.53332)">
    <rect
       style="fill:#fb8c00;fill-opacity:1;stroke:none;stroke-width:0.26395738"
       id="rect819"
       width="135.46666"
       height="135.46666"
       x="0"
       y="161.53333" />
    <g
       id="g14"
       transform="matrix(0.11005477,0,0,0.11005477,13.511319,170.42047)"
       style="fill:#fff3e0;fill-opacity:1;stroke:none">
      <path
         id="path12"
         d="m 834.33911,467.2 c 0.2,-5.8 0.3,-11.1 0.3,-15.3 0,-69.8 -27.2,-135.4 -76.5,-184.8 -49.4,-49.4 -115,-76.5 -184.8,-76.5 -54.1,0 -107.3,18.4 -153.8,53.2 -31.8,23.8 -58.5,54.1 -77.7,87.7 -21.1,-11 -44.5,-16.7 -68.7,-16.7 -38.8,0 -76.1,18 -105,50.7 -19.3,21.8 -33,48.3 -39.7,75.9 -32.699999,12.9 -61.899999,35.1 -82.999999,63.5 -24.8,33.1 -37.8999996,72.5 -37.8999996,113.9 0,105.1 85.4999996,190.6 190.5999986,190.6 v -0.5 h 618.4 v 0.3 c 94.3,0 171,-76.7 171,-171 0,-88 -67.6,-161.5 -153.2,-171 z"
         inkscape:connector-curvature="0"
         style="fill:#fff3e0;fill-opacity:1;stroke:none"
         sodipodi:nodetypes="cscsccscccsccccsc" />
    </g>
    <g
       id="g823"
       transform="matrix(0.13246076,0,0,0.13246076,23.048782,216.11361)"
       style="fill:#fb8c00">
      <path
         id="path819"
         d="m 343.816,0.699 c 4.56,-1.58 9.541,-0.261 13.72,1.8 2.92,1.88 5.84,3.78 9.11,5.01 0.25,0.47 0.77,1.4 1.02,1.86 -0.13,0.31 -0.38,0.95 -0.51,1.26 2.33,5.3 3.82,11.58 1.56,17.149 -1.54,1.88 -4.22,2.171 -6.39,2.899 -0.01,2.69 0.42,5.351 0.65,8.021 4.64,0.75 8.568,-2.48 13.158,-2.16 0.62,-2.57 1.11,-5.182 1.932,-7.701 0.95,1.67 0.989,3.591 1,5.471 1.2,0.34 2.42,0.65 3.648,0.949 0.012,0.461 0.021,1.381 0.021,1.841 20.12,0.12 40.229,-0.091 60.35,0.11 -0.05,0.688 -0.148,2.069 -0.188,2.76 0.52,0 1.58,0.01 2.108,0.01 -0.02,-3.659 0,-7.33 -0.01,-10.989 0.51,-0.021 1.51,-0.051 2.01,-0.061 0.012,2.88 0.021,5.76 0.051,8.641 0.439,0.54 1.319,1.619 1.761,2.159 0.33,-0.391 0.989,-1.159 1.318,-1.55 1.53,1.431 0.66,3.391 0.592,5.149 5.63,-0.061 11.318,0.319 16.93,-0.141 0.42,-0.31 1.26,-0.92 1.68,-1.229 0.771,0.299 1.55,0.6 2.32,0.91 2.53,-0.062 5.07,-0.07 7.61,-0.08 -0.052,1.31 -0.092,2.619 -0.142,3.93 -3.27,-0.051 -6.55,-0.12 -9.77,0.439 -2.08,-1.789 -4.87,-1.221 -7.38,-1.289 -3.86,0.18 -7.842,-0.5 -11.58,0.729 -2.222,0.62 -4.66,0.471 -6.62,-0.79 -0.472,1.17 0.25,3.79 -1.722,3.689 -7.76,0.101 -15.51,-0.069 -23.26,0.051 -1.06,0.56 -2.13,1.09 -3.188,1.609 -1.12,3.34 -4.33,5.569 -7.062,7.609 -0.34,5.13 1.69,9.92 2.48,14.899 -1.53,0.439 -3.07,0.891 -4.58,1.391 -2.17,5.12 -0.84,12.109 -5.86,15.681 -3.85,2.239 -6.398,7.109 -11.59,6.34 2.64,2.2 -0.72,1.51 -0.37,-0.25 -9.39,-0.83 -17.3,-6.34 -25.46,-10.539 -0.38,2.299 -0.979,4.56 -1.6,6.81 3.1,0.59 5.66,2.87 6.21,6.05 0.99,6.931 -0.99,13.812 -0.96,20.761 0.22,4.08 -1.53,7.819 -3.71,11.149 -1.91,2.16 -4.92,-0.061 -7.21,-0.38 -0.521,1.01 -1.03,2.021 -1.53,3.04 0.65,2.719 0.93,5.549 1.84,8.209 5.11,5.65 9.76,11.771 13.33,18.521 a 244.586,244.586 0 0 1 9.811,23.459 c 0.279,1.551 1.739,2.108 3.021,2.67 0.17,1.6 0.34,3.198 0.5,4.819 0.5,0.73 1.01,1.459 1.53,2.199 0.31,9.861 -0.9,19.68 -2.432,29.41 -0.948,4.391 1.62,8.68 0.58,13.1 0.12,2.263 -1.438,3.972 -2.17,5.972 -0.14,4.67 -0.37,9.399 0.142,14.061 0.358,3.42 3.25,5.619 5.21,8.17 2.14,2.271 3.93,5.32 7.17,6.129 3.05,0.91 5.96,2.23 8.648,3.961 0.82,2.029 0.67,4.181 0.28,6.289 -5.86,1.08 -11.84,0.541 -17.76,0.632 -4.562,0.239 -8.63,-2.211 -13.062,-2.722 -4.29,-0.108 -9.52,2.021 -12.818,-1.819 1.398,-5.328 1.51,-11.05 4.068,-16.021 0.82,-5.629 -0.738,-11.34 -0.41,-17.02 -0.488,-0.41 -1.47,-1.23 -1.96,-1.642 0.352,-3.709 -1.479,-7.01 -2.09,-10.559 -0.398,-5.183 -0.87,-10.361 -1.47,-15.521 -0.47,-2.51 0.83,-4.809 2.6,-6.479 0.16,-2.9 0.552,-5.771 0.83,-8.65 -0.43,-1.871 -1.92,-3.26 -2.88,-4.86 -3.21,1.352 -7.54,0.711 -9.45,-2.431 -4.529,-6.739 -9.05,-13.479 -13.63,-20.18 -1.8,-0.119 -3.7,0.07 -5.38,-0.65 -1.938,-1.989 -2.95,-4.639 -4.188,-7.059 -1.771,1.99 -1.642,5.039 -3.74,6.85 -4.44,4.261 -5.62,10.521 -7.94,15.98 -1.778,3.539 -0.778,7.809 -2.76,11.26 -1.06,1.859 -3.72,2.229 -4.42,4.351 -0.92,2.288 -2,4.659 -4.15,6.051 -2.33,1.528 -2.949,4.43 -3.988,6.828 -0.95,2.211 0.46,4.53 0.13,6.801 -1.48,7.211 -6.07,13.24 -8,20.301 -0.88,3.18 -2.141,6.76 -5.841,7.439 -4.21,7.52 -6.529,16.721 -4.149,25.188 1.46,2.66 1.38,5.65 0.93,8.58 -6.689,0.521 -13.55,1.42 -20.119,-0.449 -1.54,-3.051 -1.32,-6.641 -1,-9.938 2.029,-8.672 4.72,-17.191 6.369,-25.951 -2.06,-1.83 -1.579,-4.629 -1.54,-7.08 -0.069,-4.57 3.04,-8.23 5.2,-11.98 0.811,-3.85 0.431,-7.987 2.42,-11.52 2.341,-4.42 4.32,-9.199 7.931,-12.77 0.689,-3.15 3.011,-5.529 3.949,-8.562 1,-2.68 -0.75,-5.4 -0.398,-8.139 0.859,-8.312 2.37,-16.541 3.68,-24.791 -2.479,-2.07 -1.68,-5.359 -2.47,-8.15 0.39,-1.1 0.88,-2.149 1.47,-3.17 -0.62,-0.57 -1.229,-1.15 -1.85,-1.719 0.6,-2.933 0.43,-8.183 4.93,-7.23 0.28,-9.71 -3.09,-19.11 -1.96,-28.831 0.6,0.699 1.189,1.41 1.79,2.12 l -0.32,-3.29 c 1.88,-1 3.88,-1.77 5.98,-2.16 -3.42,-0.449 -6.75,-1.319 -10.102,-2.1 -0.81,-2.131 -0.358,-4.4 -0.06,-6.58 1.3,-7.36 1.78,-14.82 2.05,-22.28 3.79,-1.318 7.97,-0.199 11.67,-1.96 -1.148,-9.33 -1.438,-19.069 1.88,-28.02 2.67,-7.621 7.771,-14.971 15.73,-17.65 3.76,-0.899 8.49,-1.91 11.148,1.74 0.73,-0.67 1.46,-1.36 2.19,-2.03 -6.069,-12.054 1.181,-29.664 14.953,-32.144 m 48.569,52.28 c -1.6,0.98 -3.17,2.101 -1.488,3.881 -0.82,0.489 -1.642,0.96 -2.472,1.409 -1.3,1 -4.22,1.569 -3.88,3.591 a 48.68,48.68 0 0 1 3.761,7.369 c 3.189,-2.619 5.729,-6.141 7.449,-9.869 0.36,-0.37 1.091,-1.11 1.45,-1.471 -0.16,-1.71 -0.54,-3.381 -1.21,-4.96 -1.2,0.021 -2.41,0.04 -3.61,0.05 z"
         inkscape:connector-curvature="0"
         style="fill:#fb8c00" />
      <path
         id="path821"
         d="m 421.726,142.499 c 4.579,-5.779 11.979,-8.98 19.318,-8.86 22.33,0.021 44.67,-0.01 67,0.01 10.892,0.23 21.511,8.741 22.771,19.802 -30.91,-0.103 -61.812,0.09 -92.71,-0.103 -0.03,20.681 -0.07,41.371 0,62.062 23.72,-0.039 47.438,-0.08 71.16,0.02 -0.091,-7.41 0.028,-14.82 -0.07,-22.229 -11.729,0.067 -23.46,0.09 -35.19,0 -9.409,-0.361 -16.409,-8.49 -18.528,-17.15 25.22,-0.09 50.43,-0.1 75.648,0.01 -0.108,12.67 0.062,25.351 -0.09,38.021 -0.3,10.67 -9.479,20.061 -20,21.131 -24.33,0 -48.67,-0.01 -73,-0.01 -7.27,-0.052 -13.7,-4.642 -17.8,-10.371 -2.8,-4.051 -3.431,-9.08 -3.83,-13.851 -0.04,-17 0.02,-34.01 -0.021,-51.01 0.092,-6.162 1.182,-12.671 5.342,-17.472 z m 147.529,-8.161 c 2.512,-0.68 5.13,-0.729 7.722,-0.699 20.64,0.062 41.29,-0.069 61.93,0.05 11.7,0.5 21.979,10.602 22.43,22.34 0.021,18.971 0.021,37.95 0,56.932 -0.21,11.629 -10.51,22.469 -22.318,22.27 -22.7,-0.1 -45.4,0.07 -68.102,-0.08 -11.32,-1.26 -20.01,-12.069 -20.09,-23.26 -0.16,-17.301 0.02,-34.621 -0.09,-51.92 -0.09,-5.1 0.83,-10.34 3.53,-14.74 3.169,-5.531 8.849,-9.402 14.988,-10.893 m 3.561,18.462 c 0.04,21.34 -0.09,42.689 0.06,64.029 22.17,0.061 44.352,-0.01 66.521,0.028 0.068,-21.358 0.01,-42.719 0.028,-64.09 -22.199,-0.008 -44.409,-0.047 -66.609,0.033 z M 0.035,157.88 c 0.471,-11.57 10.16,-22.441 21.95,-22.891 22.029,-0.021 44.069,-0.021 66.1,0.01 11.9,-0.119 21.812,10.631 22.71,22.161 -1.59,0.131 -3.18,0.229 -4.77,0.25 -26.23,-0.029 -52.46,0.01 -78.681,-0.021 -0.011,18.64 -0.109,37.279 0.05,55.92 27.841,-0.041 55.671,-0.061 83.511,0.011 -0.79,11.948 -10.851,22.551 -22.979,23.02 -19.96,0.281 -39.92,0.01 -59.881,0.131 -4.97,0.17 -10.09,-0.451 -14.569,-2.721 -7.72,-3.949 -13.181,-12 -13.449,-20.74 -0.022,-18.38 -0.052,-36.751 0.008,-55.13 z m 131.96,-9.06 c 3.67,-8.011 12.07,-13.96 21.011,-13.851 22,0.021 44.01,0 66.021,0.01 11.489,0.07 21.609,10.129 22.42,21.481 -29.021,0.41 -58.061,0.059 -87.09,0.17 -0.131,5.84 -0.07,11.68 -0.08,17.529 21.58,0.069 43.17,0.02 64.75,0.02 6.399,0.25 13.12,2.301 17.479,7.25 4.899,4.381 6.97,11.051 7.13,17.471 0.109,6.41 0.109,12.851 -0.931,19.199 -2.38,10.281 -12.21,17.941 -22.699,18.271 -20.979,0.199 -41.971,0.02 -62.95,0.1 -4.949,0.101 -10.069,-0.61 -14.46,-3.02 -6.96,-3.631 -11.96,-10.933 -12.649,-18.771 29.54,0.142 59.09,0.09 88.63,0.021 0.07,-6.222 0.03,-12.441 0.03,-18.66 -21.86,-0.15 -43.73,-0.021 -65.601,-0.062 -12.569,0.101 -23.689,-11.45 -23.351,-23.979 0.44,-7.72 -1.339,-16.009 2.34,-23.179 z m 536.171,-11.77 c 2.78,-0.07 5.59,-0.18 8.36,0.24 -1.29,0.33 -2.602,0.5 -3.92,0.52 -0.17,3.011 -0.19,6.021 -0.15,9.029 -0.29,0 -0.859,0 -1.14,0.01 0.02,-3.09 0.05,-6.18 0.01,-9.26 -0.78,0.062 -2.33,0.201 -3.1,0.26 z m 9.919,-0.112 c 0.591,0.031 1.79,0.091 2.392,0.121 0.85,2.709 1.85,5.369 3.09,7.939 1.16,-2.59 1.92,-5.351 3.2,-7.869 0.56,-0.08 1.68,-0.25 2.238,-0.33 -0.31,3.68 0.96,7.75 -1.028,11.1 -0.36,-3.26 -0.21,-6.541 -0.421,-9.811 -1.521,3.051 -2.239,6.48 -4.229,9.301 -1.521,-2.899 -2.17,-6.201 -3.99,-8.938 -0.119,2.92 -0.06,5.85 -0.1,8.778 l -1.07,-0.121 c -10e-4,-3.388 -0.051,-6.779 -0.082,-10.17 z"
         inkscape:connector-curvature="0"
         style="fill:#fb8c00" />
    </g>
  </g>
</svg>
