<?xml version="1.0" encoding="UTF-8" standalone="no"?>
<!-- Created with Inkscape (http://www.inkscape.org/) -->

<svg
   xmlns:dc="http://purl.org/dc/elements/1.1/"
   xmlns:cc="http://creativecommons.org/ns#"
   xmlns:rdf="http://www.w3.org/1999/02/22-rdf-syntax-ns#"
   xmlns:svg="http://www.w3.org/2000/svg"
   xmlns="http://www.w3.org/2000/svg"
   xmlns:sodipodi="http://sodipodi.sourceforge.net/DTD/sodipodi-0.dtd"
   xmlns:inkscape="http://www.inkscape.org/namespaces/inkscape"
   width="512"
   height="512"
   viewBox="0 0 135.46666 135.46667"
   version="1.1"
   id="svg8"
   inkscape:version="0.92.2 (5c3e80d, 2017-08-06)"
   sodipodi:docname="logo.svg"
   inkscape:export-filename="/home/adam/Documents/alexa-Steam-status-master/branding/tf2/logo512.svg.png"
   inkscape:export-xdpi="96"
   inkscape:export-ydpi="96">
  <defs
     id="defs2" />
  <sodipodi:namedview
     id="base"
     pagecolor="#ffffff"
     bordercolor="#666666"
     borderopacity="1.0"
     inkscape:pageopacity="0.0"
     inkscape:pageshadow="2"
     inkscape:zoom="0.49497475"
     inkscape:cx="338.76151"
     inkscape:cy="1154.0209"
     inkscape:document-units="mm"
     inkscape:current-layer="layer1"
     showgrid="true"
     units="px"
     inkscape:window-width="1885"
     inkscape:window-height="2091"
     inkscape:window-x="1955"
     inkscape:window-y="35"
     inkscape:window-maximized="0" />
  <metadata
     id="metadata5">
    <rdf:RDF>
      <cc:Work
         rdf:about="">
        <dc:format>image/svg+xml</dc:format>
        <dc:type
           rdf:resource="http://purl.org/dc/dcmitype/StillImage" />
        <dc:title />
      </cc:Work>
    </rdf:RDF>
  </metadata>
  <g
     inkscape:label="Layer 1"
     inkscape:groupmode="layer"
     id="layer1"
     transform="translate(0,-161.53332)">
    <rect
       style="fill:#6d4c41;fill-opacity:1;stroke:none;stroke-width:0.26395738"
       id="rect819"
       width="135.46666"
       height="135.46666"
       x="0"
       y="161.53333" />
    <g
       id="g14"
       transform="matrix(0.11005477,0,0,0.11005477,13.511319,170.42047)"
       style="fill:#efebe9;fill-opacity:1;stroke:none">
      <path
         id="path12"
         d="m 834.33911,467.2 c 0.2,-5.8 0.3,-11.1 0.3,-15.3 0,-69.8 -27.2,-135.4 -76.5,-184.8 -49.4,-49.4 -115,-76.5 -184.8,-76.5 -54.1,0 -107.3,18.4 -153.8,53.2 -31.8,23.8 -58.5,54.1 -77.7,87.7 -21.1,-11 -44.5,-16.7 -68.7,-16.7 -38.8,0 -76.1,18 -105,50.7 -19.3,21.8 -33,48.3 -39.7,75.9 -32.699999,12.9 -61.899999,35.1 -82.999999,63.5 -24.8,33.1 -37.8999996,72.5 -37.8999996,113.9 0,105.1 85.4999996,190.6 190.5999986,190.6 v -0.5 h 618.4 v 0.3 c 94.3,0 171,-76.7 171,-171 0,-88 -67.6,-161.5 -153.2,-171 z"
         inkscape:connector-curvature="0"
         style="fill:#efebe9;fill-opacity:1;stroke:none"
         sodipodi:nodetypes="cscsccscccsccccsc" />
    </g>
    <g
       id="g829"
       transform="matrix(0.10218667,0,0,0.10218667,45.586975,209.22975)"
       style="fill:#6d4c41">
      <path
         id="path821"
         d="m 429.4,259.4 c -1.5,10.2 -4.2,20 -7.8,29.5 -3.8,10.1 -7.6,20.3 -13.2,29.6 -2.3,3.8 -4.5,7.7 -6.6,11.6 -7.9,14.3 -18.3,26.8 -29.5,38.3 -11.5,11.8 -24.3,22.3 -38.5,31.1 -8.6,5.3 -17.2,10.3 -26.4,14.4 -14.1,6.3 -28.7,11.5 -44.1,14.5 -10.2,2 -20.4,3.5 -30.7,4.9 -6.5,0.9 -7.6,0.2 -7.1,-6.1 1.1,-13.1 2.8,-26.2 3.7,-39.4 0.6,-8.6 1.4,-17.1 2.2,-25.7 1.2,-14.1 2.2,-28.3 3.9,-42.4 0.9,-7.7 2,-15.5 1.8,-23.2 -0.2,-7.4 4.6,-8.4 9.1,-10.1 9.1,-3.4 16.6,-9 23.7,-15.5 7,-6.4 11.2,-14.5 16.3,-22.1 2.1,-3.1 5.5,-1.6 8.2,-1.4 9.5,0.7 19,1.9 28.5,2.8 14.3,1.3 28.6,2.7 42.9,3.9 9.1,0.8 18.1,1.4 27.2,2.1 12.1,1 24.2,2.1 36.4,3.2 z"
         class="st0"
         inkscape:connector-curvature="0"
         style="fill:#6d4c41" />
      <path
         id="path823"
         d="m 181.7,288.4 c -1.6,15.9 -3.2,29.5 -4.2,43.1 -0.6,8.2 -1.4,16.5 -2.2,24.7 -1.4,14.5 -2.7,28.9 -3.9,43.4 -0.7,8.4 -1.6,16.8 -2,25.2 -0.2,3.1 -1.2,3.8 -4,3 -9.5,-3.1 -19.5,-4.8 -28.5,-9.5 -3.6,-1.9 -7.6,-3 -11.4,-4.6 C 114.8,409.3 105.1,403.3 95.7,397 82.8,388.5 71,378.3 60.3,367 49.1,355 39,342.3 30.8,328.3 25.2,318.7 19.7,309 16,298.3 12.8,289.1 9.1,280.1 6.8,270.6 4.3,260.7 2,250.9 1.3,240.6 1,235.5 0.6,230.3 0.1,225.2 c -0.3,-2.6 0.2,-3.4 2.6,-3.2 5.9,0.4 12,0.3 17.8,1.3 5.1,0.9 10.2,1 15.2,1.5 14.8,1.4 29.6,2.6 44.4,4.1 9.5,1 19.1,1.3 28.7,2.1 10.7,0.9 21.4,2 32,3 1.5,0.1 2.2,0.5 2.7,2.2 2.6,10.4 7.5,19.9 14.2,28.1 4.5,5.5 9.4,11 16,14.5 4.6,2.6 9.6,5 8,9.6 z"
         class="st0"
         inkscape:connector-curvature="0"
         style="fill:#6d4c41" />
      <path
         id="path825"
         d="m 432.2,191.5 c 0.1,1.3 0.2,2.7 0.5,4 1.5,8.1 1.3,8.5 -6.7,7.6 -19,-2.1 -38.1,-3.4 -57.2,-5.1 -15.3,-1.3 -30.6,-2.9 -45.9,-4 -10.7,-0.7 -21.3,-2 -32,-2.9 -3.1,-0.2 -3.7,-2.3 -4.5,-4.5 -3,-8.8 -8.6,-15.8 -14.9,-22.5 -5.1,-5.5 -10.8,-10 -17.5,-13.4 -4.8,-2.4 -3.9,-7.2 -3.5,-11.4 0.9,-10.3 1.9,-20.7 2.9,-31 1.3,-13.5 2.8,-26.9 3.8,-40.4 0.6,-8.1 1.3,-16.1 2.1,-24.2 1.2,-12 2.1,-24 3,-36 0.3,-3.8 2.9,-2.9 4.7,-2.4 8.6,2.4 17.3,4.5 25.6,7.8 10.7,4.2 21.3,8.7 31.2,14.7 13.6,8.1 26.4,17.2 38.3,27.8 9.7,8.7 18.3,18.2 26.4,28.3 7.3,9.1 13.3,19.2 19.2,29.4 7.4,12.9 12.7,26.6 17.1,40.5 3.8,12.2 6.6,24.8 7.4,37.7 z"
         class="st0"
         inkscape:connector-curvature="0"
         style="fill:#6d4c41" />
      <path
         id="path827"
         d="m 192.4,1.1 c 2.7,-0.3 6.3,-0.8 9.9,-1.1 2.7,-0.2 4.4,0.6 4.1,3.9 -1,9.9 -1.7,19.7 -2.7,29.6 -0.5,4.6 -0.8,9.2 -1.1,13.8 -1.6,18.6 -3.2,37.2 -5.1,55.7 -1.3,12.5 -2.3,25 -3,37.5 -0.3,5.1 -4.3,5.2 -7.1,6.3 -9,3.6 -16.7,8.9 -23.5,15.7 -4.6,4.6 -9.2,9 -11.8,15 -0.3,0.7 -1,1.3 -2,1.2 -7.7,-0.7 -15.5,-1.3 -23.2,-2 -5.1,-0.5 -10.1,-1.3 -15.2,-1.7 -14.7,-1.1 -29.3,-2.6 -43.9,-3.8 -9.2,-0.8 -18.4,-1.7 -27.7,-2.3 -10.5,-0.7 -21,-2 -31.5,-2.9 -3.4,-0.3 -2.5,-2.6 -1.9,-4.4 1.9,-6.5 3.3,-13.2 6,-19.3 C 18.3,129.2 23.8,116.1 31.5,104 37.9,94 44.6,84.3 52.3,75.3 60.1,66.1 68.8,57.7 78.1,50 86,43.4 94.2,37.3 103,32 c 9.9,-5.9 19.7,-12 30.8,-15.6 4.7,-1.5 9.1,-3.8 13.8,-5.5 C 161,6 175.1,4 188.9,1.1 c 0.8,-0.1 1.7,0 3.5,0 z"
         class="st0"
         inkscape:connector-curvature="0"
         style="fill:#6d4c41" />
    </g>
  </g>
  <style
     id="style819"
     type="text/css">
	.st0{fill:#1A2833;}
</style>
</svg>
