<?xml version="1.0" encoding="UTF-8" standalone="no"?>
<!-- Created with Inkscape (http://www.inkscape.org/) -->

<svg
   xmlns:dc="http://purl.org/dc/elements/1.1/"
   xmlns:cc="http://creativecommons.org/ns#"
   xmlns:rdf="http://www.w3.org/1999/02/22-rdf-syntax-ns#"
   xmlns:svg="http://www.w3.org/2000/svg"
   xmlns="http://www.w3.org/2000/svg"
   xmlns:sodipodi="http://sodipodi.sourceforge.net/DTD/sodipodi-0.dtd"
   xmlns:inkscape="http://www.inkscape.org/namespaces/inkscape"
   width="512"
   height="512"
   viewBox="0 0 135.46666 135.46667"
   version="1.1"
   id="svg8"
   inkscape:version="0.92.2 (5c3e80d, 2017-08-06)"
   sodipodi:docname="logo.svg"
   inkscape:export-filename="/home/adam/Documents/alexa-Steam-status-master/branding/dota/logo512.svg.png"
   inkscape:export-xdpi="96"
   inkscape:export-ydpi="96">
  <defs
     id="defs2">
    <clipPath
       clipPathUnits="userSpaceOnUse"
       id="clipPath18">
      <path
         d="m 177.029,403.556 c -2.525,-6.313 -6.061,-3.536 -6.061,-3.536 v 0 l -7.829,0.758 -1.262,-5.556 -2.526,5.304 c -2.272,-9.85 -4.546,-8.587 -4.546,-8.587 v 0 l -6.292,-0.224 c 0.048,-0.397 -0.12,-1.273 -0.778,-3.059 v 0 c -1.768,-4.798 -6.818,0 -6.818,0 v 0 c 0,0 -17.173,-1.01 -25.76,-0.505 v 0 c -8.585,0.505 -13.384,7.324 -13.384,7.324 v 0 l -3.283,-4.546 -8.081,1.01 -0.505,2.526 -4.293,-2.526 -18.183,0.505 -1.768,-1.768 -2.778,3.031 -4.546,0.253 -2.02,-2.273 -2.778,3.788 -1.515,0.252 -1.515,-4.04 -2.525,2.02 -10.86,0.506 -2.342,4.367 C 19.782,383.224 7.282,396.08 7.282,396.08 v 0 l -1.979,-16.01 -1.515,0.253 -0.757,9.344 1.767,0.505 0.505,1.515 -4.545,0.505 L 0,371.736 c 3.788,-5.808 4.546,0.253 4.546,0.253 v 0 l 2.272,-1.263 c -8.586,-90.66 3.789,-129.551 3.789,-129.551 v 0 c -8.839,-22.477 5.05,-28.79 5.05,-28.79 v 0 l -0.505,-15.153 -6.818,3.788 -0.253,-3.788 3.535,-2.019 -1.009,-1.769 c -3.536,3.031 -4.798,2.274 -4.798,2.274 v 0 C 3.788,159.857 7.323,143.947 7.323,143.947 v 0 L 15.152,142.684 13.385,99.753 7.323,99.5 C 4.798,95.46 4.546,79.803 4.546,79.803 v 0 C 10.102,34.851 2.525,21.214 2.525,21.214 v 0 L 14.142,19.445 13.89,13.89 16.415,12.627 c 0.505,4.041 4.546,5.051 4.546,5.051 v 0 c 2.777,-1.01 0.252,-5.303 0.252,-5.303 v 0 l 2.525,-0.506 1.011,5.557 h 1.515 l -0.252,-3.283 2.525,-0.253 c 11.112,5.051 11.869,-0.505 11.869,-0.505 v 0 l 1.01,6.313 c 1.516,-4.041 13.385,-3.283 13.385,-3.283 v 0 c 10.354,1.263 11.616,-3.283 11.616,-3.283 v 0 l -0.505,6.313 h 2.274 c 1.01,-4.797 4.293,-3.535 4.293,-3.535 v 0 c 0.505,6.567 3.283,5.304 3.283,5.304 v 0 c 2.02,-2.273 1.515,-7.576 1.515,-7.576 v 0 l 2.778,-1.263 c 1.01,4.798 6.061,4.04 6.061,4.04 v 0 l 4.293,3.03 v -3.03 h 4.545 l 1.263,3.283 c 1.263,-0.757 2.021,-5.808 2.021,-5.808 v 0 h 2.272 l 1.768,1.262 1.262,-1.767 c 0.253,2.525 3.537,4.293 3.537,4.293 v 0 l 3.03,-4.546 2.272,0.758 -0.252,3.283 c 2.273,1.263 7.576,-4.293 7.576,-4.293 v 0 l 1.262,1.515 -2.525,3.031 3.536,3.788 c 0.252,-3.031 5.051,-8.334 5.051,-8.334 v 0 c -1.769,7.828 2.777,9.091 2.777,9.091 v 0 c 2.779,-8.839 8.587,-9.091 8.587,-9.091 v 0 c 0.505,3.535 1.768,3.788 1.768,3.788 v 0 c 7.071,-7.576 21.213,-1.011 21.213,-1.011 v 0 L 170.968,0 c 2.273,2.778 8.334,2.273 8.334,2.273 v 0 l -1.262,4.293 c 17.172,5.556 22.728,-4.293 22.728,-4.293 v 0 l 3.284,4.798 2.019,0.253 0.253,-3.788 c 5.809,-4.041 18.689,0.757 18.689,0.757 v 0 l -3.032,2.273 c -1.262,3.031 37.376,2.526 37.376,2.526 v 0 c 0.252,-1.768 -1.516,-3.031 -1.516,-3.031 v 0 l -9.849,-0.757 c 9.596,-6.314 17.425,1.514 17.425,1.514 v 0 l 1.011,4.294 -3.283,-0.757 c 1.515,3.788 5.555,2.525 5.555,2.525 v 0 l -1.767,-6.062 c 2.778,-1.009 4.798,0.758 4.798,0.758 v 0 l 0.253,4.293 h 1.767 L 272.74,8.334 c 13.385,4.041 22.982,2.273 22.982,2.273 v 0 c 1.263,6.061 7.323,4.798 7.323,4.798 v 0 c 8.84,-6.818 19.699,-2.273 19.699,-2.273 v 0 c 22.475,-11.112 34.597,0.253 34.597,0.253 v 0 c 5.051,-6.819 4.798,0.505 4.798,0.505 v 0 l 6.567,0.253 1.009,2.02 -15.152,1.263 c 12.375,12.374 44.699,-6.314 44.699,-6.314 v 0 l -1.514,163.392 c -17.173,-1.768 -10.607,4.041 -10.607,4.041 v 0 c 3.283,-2.779 5.051,-0.758 5.051,-0.758 v 0 c -1.263,11.617 2.273,18.183 2.273,18.183 v 0 c -4.546,3.283 1.515,17.425 1.515,17.425 v 0 c -7.829,-0.505 -4.041,15.153 -4.041,15.153 v 0 c -6.565,1.263 -5.556,5.807 -5.556,5.807 v 0 c 4.293,4.294 -1.767,1.769 -1.767,1.769 v 0 c -6.314,11.111 5.303,14.647 5.303,14.647 v 0 l -4.545,11.617 11.616,0.252 c 5.304,63.135 -2.273,99.247 -2.273,99.247 v 0 c 6.061,3.284 1.516,23.739 1.516,23.739 v 0 c -12.375,2.525 -11.112,7.829 -11.112,7.829 v 0 l -10.859,0.252 -3.789,2.273 c -0.252,-8.587 -19.95,0.758 -19.95,0.758 v 0 c -8.587,-9.597 -10.859,6.061 -10.859,6.061 v 0 c 0.453,-0.065 0.275,0.036 -0.189,0.137 v 0 c -1.345,0.294 -5.095,0.587 -2.842,-3.168 v 0 c 3.031,-5.051 -0.758,-5.303 -0.758,-5.303 v 0 c -70.963,7.576 -77.023,2.02 -77.023,2.02 v 0 c 7.323,-4.798 -0.253,-10.859 0,-12.627 v 0 c -13.385,0.253 -16.668,-2.525 -16.668,-2.525 v 0 c -0.252,11.364 -14.646,18.94 -23.487,18.182 v 0 c -8.837,-0.757 -14.14,3.788 -14.14,3.788 v 0 c -8.334,-7.828 -27.528,0.253 -27.528,0.253 z m -29.294,-11.869 0.778,0.028 c -0.026,0.217 -0.118,0.29 -0.229,0.29 v 0 c -0.231,0 -0.549,-0.318 -0.549,-0.318"
         id="path16"
         inkscape:connector-curvature="0" />
    </clipPath>
    <linearGradient
       x1="0"
       y1="0"
       x2="1"
       y2="0"
       gradientUnits="userSpaceOnUse"
       gradientTransform="matrix(-0.34726477,42.507993,42.507993,0.34726477,68.410473,211.30661)"
       spreadMethod="pad"
       id="linearGradient28">
      <stop
         style="stop-opacity:1;stop-color:#bb3119"
         offset="0"
         id="stop24" />
      <stop
         style="stop-opacity:1;stop-color:#812112"
         offset="1"
         id="stop26" />
    </linearGradient>
    <clipPath
       clipPathUnits="userSpaceOnUse"
       id="clipPath38">
      <path
         d="M 0,403.557 H 399.262 V 0 H 0 Z"
         id="path36"
         inkscape:connector-curvature="0" />
    </clipPath>
  </defs>
  <sodipodi:namedview
     id="base"
     pagecolor="#ffffff"
     bordercolor="#666666"
     borderopacity="1.0"
     inkscape:pageopacity="0.0"
     inkscape:pageshadow="2"
     inkscape:zoom="0.7"
     inkscape:cx="311.90194"
     inkscape:cy="493.87201"
     inkscape:document-units="mm"
     inkscape:current-layer="layer1"
     showgrid="true"
     units="px"
     inkscape:window-width="1885"
     inkscape:window-height="2091"
     inkscape:window-x="1955"
     inkscape:window-y="35"
     inkscape:window-maximized="0" />
  <metadata
     id="metadata5">
    <rdf:RDF>
      <cc:Work
         rdf:about="">
        <dc:format>image/svg+xml</dc:format>
        <dc:type
           rdf:resource="http://purl.org/dc/dcmitype/StillImage" />
        <dc:title />
      </cc:Work>
    </rdf:RDF>
  </metadata>
  <g
     inkscape:label="Layer 1"
     inkscape:groupmode="layer"
     id="layer1"
     transform="translate(0,-161.53332)">
    <rect
       style="fill:#b71c1c;fill-opacity:1;stroke:none;stroke-width:0.26395738"
       id="rect819"
       width="135.46666"
       height="135.46666"
       x="0"
       y="161.53333" />
    <g
       id="g14"
       transform="matrix(0.11005477,0,0,0.11005477,13.511319,170.42047)"
       style="fill:#ffebee;fill-opacity:1;stroke:none">
      <path
         id="path12"
         d="m 834.33911,467.2 c 0.2,-5.8 0.3,-11.1 0.3,-15.3 0,-69.8 -27.2,-135.4 -76.5,-184.8 -49.4,-49.4 -115,-76.5 -184.8,-76.5 -54.1,0 -107.3,18.4 -153.8,53.2 -31.8,23.8 -58.5,54.1 -77.7,87.7 -21.1,-11 -44.5,-16.7 -68.7,-16.7 -38.8,0 -76.1,18 -105,50.7 -19.3,21.8 -33,48.3 -39.7,75.9 -32.699999,12.9 -61.899999,35.1 -82.999999,63.5 -24.8,33.1 -37.8999996,72.5 -37.8999996,113.9 0,105.1 85.4999996,190.6 190.5999986,190.6 v -0.5 h 618.4 v 0.3 c 94.3,0 171,-76.7 171,-171 0,-88 -67.6,-161.5 -153.2,-171 z"
         inkscape:connector-curvature="0"
         style="fill:#ffebee;fill-opacity:1;stroke:none"
         sodipodi:nodetypes="cscsccscccsccccsc" />
    </g>
    <path
       style="fill:#b71c1c;stroke:none;stroke-width:0.10495776"
       d="m 65.855862,211.37545 c -3.312165,2.48335 -7.030842,1.14839 -10.779337,1.17924 -2.294779,-0.11267 -6.728838,-0.81336 -7.402135,0.82778 -0.671491,-1.63799 -0.165166,2.00828 0.186956,2.62445 -0.273973,3.84828 -0.278315,7.70204 0.24784,11.53315 -0.24423,2.46399 1.579667,4.77963 -0.189109,6.52501 -0.97734,2.8035 1.410137,4.78216 0.832847,7.42736 -0.854918,2.30555 -1.225779,4.54718 -0.709389,7.1915 -1.617566,3.18759 1.950866,4.1649 4.304141,3.22791 2.778775,0.0795 4.70975,0.0161 7.623838,0.30903 0.182872,-0.71106 2.971774,-0.0908 4.795052,0.57132 0.850009,1.28716 3.008792,-0.55383 4.525535,0.54688 1.40287,0.3966 3.39378,-1.52668 4.69112,-0.2443 1.204245,-0.13964 5.62671,-1.35709 8.538632,-0.34747 0.782508,0.31924 4.887862,-0.50191 2.197963,-0.97015 1.953759,-1.15617 5.447674,2.20337 4.442664,-1.83711 -0.05853,-4.84115 -0.09418,-9.68252 -0.140524,-14.52384 -1.847965,-0.10157 0.602219,-3.91169 -0.777343,-5.6319 -1.992091,-2.80509 1.942344,-4.47732 0.816702,-7.5136 0.09468,-2.80575 -0.231838,-5.64204 -0.13222,-8.47328 -0.690346,-2.02171 -6.989515,-1.63852 -6.242119,-1.54732 -2.593144,0.48801 -7.338441,-1.89049 -8.286179,1.0095 -2.418689,0.66495 -3.855152,-2.80535 -6.693056,-1.55745 -0.630406,0.002 -1.282974,-0.0289 -1.851879,-0.32671 z m -3.041418,1.20337 c -0.01065,0.003 -0.02218,0.0149 -0.03321,0.0425 0.108235,0.1157 0.07936,-0.0537 0.03321,-0.0425 z m -7.912267,6.35528 c 1.144091,-0.0219 1.703053,0.57855 1.703052,0.57855 l 3.127823,2.20011 -0.158973,0.18542 0.688938,0.68925 0.159128,-0.0795 -0.318102,-0.39759 0.662649,0.37099 -0.158974,0.26507 0.13253,0.13252 0.238461,-0.18542 0.238614,0.23847 0.424035,0.0265 c -0.05301,0.68915 1.007348,0.6362 1.007348,0.6362 l 16.831269,11.45045 -0.212172,0.23876 0.450633,0.37099 -0.265059,-0.0266 -0.768582,-0.31811 -0.0266,0.34471 2.040989,0.18541 3.498661,2.35909 c -0.212014,4.79752 -2.730083,8.00482 -2.730083,8.00482 -5.301204,0.34448 -6.281936,-1.98795 -6.281936,-1.98795 l -4.240949,-4.53245 0.185572,-0.23862 -0.450478,-0.42417 0.02644,0.34454 c -0.450478,-0.90128 -0.980596,-1.19262 -0.980596,-1.19262 l 0.132376,0.42389 c -0.609595,-0.5036 -0.424187,-1.08653 -0.424187,-1.08653 l -0.795025,-1.0338 c -0.636044,-0.34457 -0.185573,0.18557 -0.185573,0.18557 l 0.609607,0.68909 -0.158974,0.23862 c 0,0 -1.060183,-0.90132 -1.722886,-2.14706 -0.662599,-1.24575 -0.158974,0.13252 -0.158974,0.13252 l -4.108574,-4.45297 0.318255,0.23862 c 0,0 0.397544,0.5301 0.158975,-0.0795 -0.238569,-0.6097 -1.007195,-0.50368 -1.007195,-0.50368 L 52.205305,219.91024 c 1.113235,-0.72563 2.010418,-0.96294 2.696872,-0.97614 z m 23.568295,0.28244 c 0.609564,0.0114 0.916484,0.24307 0.916484,0.24307 l 1.842347,1.35174 -0.01321,0.17235 -0.278436,-0.0793 c 0,0 -0.238487,0.11922 -0.132374,0.53012 0.106006,0.41081 0.212015,-0.0532 0.212015,-0.0532 l -0.02645,-0.21201 0.23846,-0.0132 -0.84822,5.44694 -0.344547,0.0266 -0.225391,-0.29166 h -0.397591 c 0,0 0.106083,-0.79517 -0.317945,-0.8084 -0.424136,-0.0132 -0.198951,0.26506 -0.198951,0.26506 l 0.331326,0.15897 -0.09271,0.18558 -6.957654,-5.34101 c 0,0 3.989065,-1.00705 5.274588,-1.41785 0.401727,-0.12838 0.741192,-0.1689 1.018264,-0.16374 z m -23.044634,17.6575 8.269729,7.99144 -5.85775,1.88201 -0.357768,-0.22523 c 0,0 -0.08837,0.36774 -0.446481,0.24906 -0.119132,0.038 -0.202945,-0.10331 -0.202945,-0.10331 0.07612,0.0514 0.142904,0.0834 0.202945,0.10331 0.07657,-0.0245 0.167568,-0.12246 0.260907,-0.38174 0,0 -0.09278,-0.21202 -0.225238,0 l -0.09286,0.19879 -0.02644,-0.38421 -0.238461,0.15897 -0.185727,-0.0265 -0.03966,0.34439 -3.498814,-2.59739 c 0,0 -0.503665,-0.18549 -0.106086,-1.39156 0.39758,-1.20607 2.544662,-5.81809 2.544662,-5.81809 z"
       id="path30"
       inkscape:connector-curvature="0" />
  </g>
</svg>
